<svg id="Capa_1" enable-background="new 0 0 512 512" height="512" viewBox="0 0 512 512" width="512" xmlns="http://www.w3.org/2000/svg"><g><g><path d="m109.64 196h-52.77v306h300v-84.561z" fill="#fff"/><circle cx="246.87" cy="40" fill="#9affbc" r="30"/><path d="m129.006 129.877h300v300h-300z" fill="#ccffb3" transform="matrix(.981 -.193 .193 .981 -48.758 59.091)"/></g><g><g fill="#53d0a6"><path d="m46.87 196v306c0 5.523 4.477 10 10 10h300c5.523 0 10-4.477 10-10v-76.337l90.188-17.734c5.419-1.065 8.949-6.322 7.883-11.741l-57.882-294.363c-.512-2.603-2.036-4.895-4.238-6.374-2.202-1.478-4.902-2.021-7.503-1.509l-138.448 27.224v-42.432c17.233-4.452 30-20.13 30-38.734 0-22.056-17.944-40-40-40s-40 17.944-40 40c0 18.604 12.767 34.282 30 38.734v46.365l-135.917 26.726c-2.603.512-4.895 2.036-6.373 4.238-1.479 2.202-2.021 4.901-1.51 7.503l4.412 22.434h-40.612c-5.523 0-10 4.477-10 10zm180-156c0-11.028 8.972-20 20-20s20 8.972 20 20-8.972 20-20 20-20-8.972-20-20zm10 105.482v30.518c0 5.523 4.477 10 10 10s10-4.477 10-10v-34.451l132.493-26.053 54.023 274.738c-11.936 2.347-263.552 51.824-274.738 54.024l-54.024-274.738zm-170 60.518h34.545l49.539 251.929c1.067 5.425 6.327 8.947 11.741 7.883l184.175-36.216v62.404h-280z"/><path d="m202.13 355.386c-5.419 1.065-8.949 6.322-7.883 11.741 1.067 5.425 6.327 8.947 11.741 7.883l176.62-34.729c5.419-1.065 8.948-6.322 7.883-11.741-1.066-5.419-6.328-8.95-11.741-7.883z"/><path d="m182.837 257.257 176.613-34.729c5.419-1.065 8.948-6.322 7.883-11.741s-6.328-8.948-11.741-7.883l-176.613 34.729c-5.419 1.065-8.948 6.322-7.883 11.741 1.066 5.426 6.326 8.948 11.741 7.883z"/><path d="m190.554 296.509c-5.419 1.065-8.948 6.322-7.883 11.741 1.067 5.425 6.327 8.947 11.741 7.883l176.616-34.729c5.419-1.065 8.948-6.322 7.883-11.741-1.065-5.42-6.328-8.949-11.741-7.883z"/></g></g></g></svg>